<?xml version="1.0" encoding="utf-8"?>
<!-- Generator: Adobe Illustrator 19.1.0, SVG Export Plug-In . SVG Version: 6.00 Build 0)  -->
<!DOCTYPE svg PUBLIC "-//W3C//DTD SVG 1.1//EN" "http://www.w3.org/Graphics/SVG/1.1/DTD/svg11.dtd">
<svg version="1.1" id="Layer_1" xmlns="http://www.w3.org/2000/svg" xmlns:xlink="http://www.w3.org/1999/xlink" x="0px" y="0px"
	 width="360.5px" height="191.5px" viewBox="0 0 360.5 191.5" style="enable-background:new 0 0 360.5 191.5;" xml:space="preserve"
	>
<style type="text/css">
	.st0{fill:#231F20;}
</style>
<path class="st0" d="M285,32.3c-44.5,2-97.5,37.7-97.5,37.7s-3.3,2-7.7,2c-4.4,0-7.7-2-7.7-2s-53-35.7-97.5-37.7
	c0,0-47.5-3-53.8-2.3c0,0,13.3,39.4,14.4,54.5c0,0,7.7,41.7,24.3,59.4c0,0,19.1,25.2,47.8,23.1c0,0,28.4-0.8,45.8-27.7
	c0,0,10.2-17.1,11.9-26.6c0,0,4.1-12.7,14.9-13.1c10.8,0.4,14.9,13.1,14.9,13.1c1.7,9.5,11.9,26.6,11.9,26.6
	c17.4,26.9,45.8,27.7,45.8,27.7c28.7,2.1,47.8-23.1,47.8-23.1c16.6-17.7,24.3-59.4,24.3-59.4c1.1-15.1,14.4-54.5,14.4-54.5
	C332.4,29.3,285,32.3,285,32.3z M32.6,44.5c-2.4,0-4.3-1.9-4.3-4.3s1.9-4.3,4.3-4.3c2.4,0,4.3,1.9,4.3,4.3S35,44.5,32.6,44.5z
	 M160.2,106.2c-13.6,39.1-37.8,67.3-75.9,48.6c-22.6-11.1-38.9-40.9-41.5-69.6c-3.6-39.7,23.9-38.1,48-35
	C112.6,53,168.9,66.6,160.2,106.2z M316.1,85.2c-2.6,28.7-18.9,58.5-41.5,69.6c-38.1,18.7-62.3-9.5-75.9-48.6
	c-8.7-39.6,47.6-53.2,69.4-56C292.2,47.1,319.7,45.4,316.1,85.2z M325.1,44.5c-2.4,0-4.3-1.9-4.3-4.3s1.9-4.3,4.3-4.3
	s4.3,1.9,4.3,4.3S327.5,44.5,325.1,44.5z"/>
</svg>
