<?xml version="1.0" encoding="utf-8"?>
<!-- Generator: Adobe Illustrator 19.1.0, SVG Export Plug-In . SVG Version: 6.00 Build 0)  -->
<!DOCTYPE svg PUBLIC "-//W3C//DTD SVG 1.1//EN" "http://www.w3.org/Graphics/SVG/1.1/DTD/svg11.dtd">
<svg version="1.1" id="Layer_1" xmlns="http://www.w3.org/2000/svg" xmlns:xlink="http://www.w3.org/1999/xlink" x="0px" y="0px"
	 width="200px" height="186.6px" viewBox="0 0 200 186.6" style="enable-background:new 0 0 200 186.6;" xml:space="preserve">
<style type="text/css">
	.st0{fill:#231F20;}
</style>
<path class="st0" d="M31.2,162.6c0,0,3.7-74.1-13.2-99.8c0,0-5.8-18.5,18.2-44.7c0,0,28.9,24.6,40.5,53.1c0,0,20.5,47,32.9,55.6
	s33,2.2,33,2.2s16.9-0.4,44.2,9.4c0,0,2.8,3.5,1.4,6.7c0,0-60.9,29.8-89.3,10.2c0,0-7.7-5.1-12.7-14c0,0-20.7-50.9-35.3-54.2
	c0,0-9.4,0.8-10.2,18c0,0-2.8,43.2-3.3,57.6H31.2z"/>
</svg>
